<svg xmlns="http://www.w3.org/2000/svg" viewBox="0 0 42.37 34.36"><defs><style>.cls-1{fill:#fff}</style></defs><g id="Layer_2" data-name="Layer 2"><g id="Inicio_2" data-name="Inicio 2"><path class="cls-1" d="M4.8 24.14v-7.95a2.36 2.36 0 011.32-2.27c4.4-2.51 8.78-5.06 13.16-7.59.4-.23.79-.45 1.2-.64a1.51 1.51 0 011.43 0C23 6.31 24.15 7 25.27 7.6 29 9.74 32.69 11.89 36.41 14a2.12 2.12 0 011.15 2v16.26a1.9 1.9 0 01-2.1 2.1h-6.75a1.89 1.89 0 01-2.09-2.08v-4.84a5.72 5.72 0 00-1.48-4 5.47 5.47 0 00-7.88 0 5.69 5.69 0 00-1.52 4v4.82a1.86 1.86 0 01-2 2.06H6.85a1.89 1.89 0 01-2-2.07zm29.11 6.56V17.04c0-.28-.15-.35-.33-.45l-12.17-7a.61.61 0 00-.51 0l-12.17 7a.56.56 0 00-.33.57V30.7h3.71v-3.21a8.85 8.85 0 01.68-3.74A9 9 0 0123 18.34 8.79 8.79 0 0129.62 24a9 9 0 01.61 3.55v3.19z"/><path class="cls-1" d="M1.77 14.82a2 2 0 01-1.69-1.33 1.8 1.8 0 01.84-2.13q2.58-1.5 5.17-3c4.6-2.66 9.21-5.3 13.8-8a2.31 2.31 0 012.57 0C28.6 4 34.76 7.49 40.9 11.05a5.05 5.05 0 011 .68 1.75 1.75 0 01.22 2.16 1.73 1.73 0 01-2.12.74c-.88-.42-1.72-.92-2.56-1.41C32.27 10.25 27.11 7.3 22 4.29a1.38 1.38 0 00-1.64 0Q11.61 9.41 2.83 14.43a7 7 0 01-1.06.39z"/></g></g></svg>