<svg xmlns="http://www.w3.org/2000/svg" viewBox="0 0 44.68 50.16"><g data-name="Layer 2"><g data-name="Inicio 2" fill="#fff"><path d="M22.34 1a3.3 3.3 0 011.66.37l18.07 10.46a3.68 3.68 0 011.61 2.79v20.92a3.68 3.68 0 01-1.61 2.79L24 48.79a3.69 3.69 0 01-3.22 0L2.61 38.33A3.68 3.68 0 011 35.54V14.62a3.68 3.68 0 011.61-2.79L20.73 1.37A3.28 3.28 0 0122.34 1m0-1a4.36 4.36 0 00-2.11.5L2.11 11A4.67 4.67 0 000 14.62v20.92a4.66 4.66 0 002.11 3.65l18.12 10.47a4.7 4.7 0 004.22 0l18.12-10.47a4.66 4.66 0 002.11-3.65V14.62A4.67 4.67 0 0042.57 11L24.45.5a4.39 4.39 0 00-2.11-.5z" opacity=".5"/><path d="M22.36 29.6l6.34-7.47c.24-.28.47-.57.72-.85 1-1.19 2.33-1.39 3.34-.51s1 2.15-.06 3.39c-.8.95-1.61 1.88-2.41 2.82q-3 3.54-6 7.07c-1.32 1.54-2.6 1.53-3.93 0q-4.26-5-8.47-10a2.19 2.19 0 113.31-2.82c2.07 2.4 4.11 4.83 6.16 7.25z" opacity=".5"/></g></g></svg>