<svg xmlns="http://www.w3.org/2000/svg" viewBox="0 0 42.75 34.18"><g data-name="Layer 2"><path d="M21.27 34.18H2.13C.41 34.18 0 33.76 0 32V2C0 .42.41 0 2 0h38.72c1.61 0 2 .42 2 2v30c0 1.75-.41 2.16-2.13 2.16zm18.56-8.38V4.6c-.25.2-.41.31-.56.44q-7.22 6.19-14.43 12.41c-2.43 2.1-4.4 2.11-6.82 0L3.64 5.17c-.21-.18-.45-.33-.75-.55v21.19l10.56-7L15 21.12 4.17 28.34c-1.55 1-1.56 1.05-1.21 2.95H39.8c.44-1.49-.13-2.34-1.38-3.08-2.2-1.31-4.28-2.82-6.42-4.21l-4.28-2.86 1.56-2.32zM5.32 2.84c.36.34.57.54.79.73L19.78 15.3c1.43 1.23 1.76 1.23 3.17 0L36.78 3.47a2.72 2.72 0 01.71-.33l-.28-.3z" fill="#fff" data-name="Inicio 2"/></g></svg>