<svg xmlns="http://www.w3.org/2000/svg" viewBox="0 0 46.79 46.77"><defs><style>.cls-1{fill:#fff}</style></defs><g id="Layer_2" data-name="Layer 2"><g id="Inicio_2" data-name="Inicio 2"><path class="cls-1" d="M32.07 46.77a14 14 0 01-1.84-.42 54.07 54.07 0 01-12.77-6.92A48.29 48.29 0 016.27 27.89 47.08 47.08 0 01.32 16.38a4.94 4.94 0 011.31-5.44c1.66-1.68 3.29-3.39 4.94-5.08a3.76 3.76 0 015.21 0C13.9 8 16 10.2 18.15 12.35a3.66 3.66 0 011.14 1.87 3.54 3.54 0 01-1 3.32l-3 3a.36.36 0 00-.08.48 20.43 20.43 0 008.2 9.24c.83.51 1.71.95 2.55 1.43a.31.31 0 00.45-.08c.95-1 1.92-1.92 2.88-2.88a3.62 3.62 0 015.25 0L41 35.18a3.62 3.62 0 010 5.07q-2.43 2.45-4.89 4.88a5.81 5.81 0 01-4 1.57zm-.26-16.13c-.09.12-.18.27-.29.39l-4.47 4.47a.33.33 0 01-.43.09c-.62-.29-1.25-.55-1.86-.86a29.78 29.78 0 01-7.57-5.24 25.07 25.07 0 01-5.8-9.08.57.57 0 01.17-.72c1.45-1.43 2.89-2.88 4.33-4.32.34-.33.34-.37 0-.7l-3.21-3.28-3.06-3.14a.53.53 0 00-.88 0l-.19.19q-2.31 2.39-4.63 4.76a2 2 0 00-.51 2.27A43.22 43.22 0 007 23a45.78 45.78 0 0011.12 12.89 51.09 51.09 0 0013.05 7.37 2.42 2.42 0 002.83-.58q2.3-2.31 4.6-4.59a2.55 2.55 0 01.4-.29z"/><path class="cls-1" d="M46.79 19.29h-12a1.13 1.13 0 00-.62.19c-2.13 1.4-4.24 2.81-6.36 4.22l-.27.17v-4.29c0-.24-.08-.31-.32-.31h-2.89V0h22.46zm-19.3-3.21h3.22v1.79c.85-.56 1.64-1.1 2.44-1.61a1.18 1.18 0 01.59-.19h9.82V3.22H27.49z"/></g></g></svg>