<svg xmlns="http://www.w3.org/2000/svg" viewBox="0 0 66.33 66.17"><g data-name="Layer 2"><path d="M33.18 66.17a33 33 0 01-23.33-9.74A33.24 33.24 0 010 33a33.17 33.17 0 1133.18 33.2zm5.65-25.77a1.12 1.12 0 01-1.44 0 1.17 1.17 0 010-1.44l4.79-4.73H22.94a1.15 1.15 0 110-2.3H42.3l-4.91-4.79a1.09 1.09 0 010-1.38 1.12 1.12 0 011.44 0l6.68 6.52a1 1 0 010 1.38zM11.12 55a31.38 31.38 0 0022.06 9.17 31.06 31.06 0 0022-53.13 30.94 30.94 0 00-22-9.17 31.38 31.38 0 00-22.06 9.17A30.91 30.91 0 002.13 33a30.93 30.93 0 009 22.07z" fill="#fff" fill-rule="evenodd" data-name="Inicio 2"/></g></svg>