<svg xmlns="http://www.w3.org/2000/svg" viewBox="0 0 80.72 32.73"><defs><style>.cls-1{fill:#fff}</style></defs><g id="Layer_2" data-name="Layer 2"><g id="Inicio_2" data-name="Inicio 2"><path class="cls-1" d="M51.9.17A57.86 57.86 0 0165.85 5.8a80.49 80.49 0 0114.87 10.59c-8.51 7.43-17.84 13.24-28.8 16.19 5.3-4.13 8.25-9.48 8.24-16.24S57.2 4.27 51.9.17zM28.82 32.59C17.87 29.64 8.54 23.82 0 16.37 8.52 8.92 17.87 3.11 28.83.15c-5.3 4.12-8.25 9.46-8.25 16.21s2.95 12.1 8.24 16.23z"/><path class="cls-1" d="M23.89 16.21a15.64 15.64 0 011.93-7.57.68.68 0 000-.81 3.1 3.1 0 013.87-4.51.74.74 0 00.86-.11 16.34 16.34 0 0125.66 9.51.81.81 0 00.65.7 3.1 3.1 0 01-.13 5.93.57.57 0 00-.49.52 16.35 16.35 0 01-31.8.64c-.35-1.4-.45-2.85-.66-4.28zm10-4.4c-1.22-1-2.42-1.92-3.64-2.86-.08-.06-.3 0-.43.05a2.85 2.85 0 01-2 .22c-.4-.11-.57 0-.74.35a14.85 14.85 0 0016.78 21.21c5.69-1.51 9.26-5.25 10.85-10.9.1-.37 0-.61-.31-.78a2.76 2.76 0 01-1.48-1.69.58.58 0 00-.45-.3h-3.86c-.44 0-.61.1-.69.56a7.73 7.73 0 01-7.19 6.5 7.4 7.4 0 01-3.54-.61l.58-1.34A6.38 6.38 0 0046 13.73l1.4-.63c.19.75.4 1.43.54 2.12.06.32.18.41.49.41h3.91a.58.58 0 00.64-.42 2.55 2.55 0 011.36-1.52c.4-.17.45-.39.35-.79a14.87 14.87 0 00-23.17-8.57c-.27.2-.36.36-.2.7a2.41 2.41 0 01.08 2c-.26.59-.08.88.38 1.22 1 .77 2.06 1.59 3.07 2.39 3.26-2.38 6.8-2.79 9.21-1l-.7 1.24a6.3 6.3 0 00-5.15-.47 6.42 6.42 0 00-3.82 3.51l-1.39-.6c.15-.3.27-.54.4-.78zm22 6.19a1.58 1.58 0 001.64-1.6 1.59 1.59 0 00-1.63-1.68 1.64 1.64 0 00-1.64 1.67A1.58 1.58 0 0055.85 18zM30.05 6.24a1.63 1.63 0 10-3.25-.12 1.63 1.63 0 103.25.12z"/><path class="cls-1" d="M35.64 6.81L35 5.55c5.7-3.17 14.44-.31 16.7 7.23l-1.36.44a10.63 10.63 0 00-5.9-6.54 10.51 10.51 0 00-8.8.13zm.93 9.57a3.67 3.67 0 113.7 3.62 3.64 3.64 0 01-3.7-3.62zm3.66-2.17a2.17 2.17 0 102.17 2.13 2.15 2.15 0 00-2.17-2.13zm9.83 9.16a12 12 0 01-14.31 4.19l.5-1.3c5.06 1.62 9.27.41 12.66-3.71zm-18.32-.63l-1.1.83c-2.54-2-3.28-9.08-1.26-12.43l1.29.62a10.67 10.67 0 001.07 10.98z"/></g></g></svg>