<svg xmlns="http://www.w3.org/2000/svg" viewBox="0 0 66.99 62"><defs><style>.cls-1{fill:#fff}</style></defs><g id="Layer_2" data-name="Layer 2"><g id="Inicio_2" data-name="Inicio 2"><path class="cls-1" d="M61.39 0c.41.13.82.25 1.22.39A6.5 6.5 0 0167 6.49v15.72a6.26 6.26 0 01-4.59 6.18 5.67 5.67 0 00-2.21-4l.39-.05A2.17 2.17 0 0062.71 22V6.75c0-1.7-.86-2.52-2.61-2.52h-53c-1.86 0-2.66.81-2.66 2.67v15a2.19 2.19 0 002.36 2.41h4.3a2.25 2.25 0 012.53 2.53v5.38l.31.23a2.81 2.81 0 01.34-.67c2.2-2.22 4.42-4.41 6.61-6.63a2.57 2.57 0 011.88-.84h12a4.53 4.53 0 01.46 0v1.14a28.5 28.5 0 00-3.38.3 5.08 5.08 0 00-3.36 2.39.75.75 0 01-.76.42h-3.69a1.51 1.51 0 00-1.2.48q-3.55 3.6-7.15 7.16a3.7 3.7 0 01-6.3-1.45 5.65 5.65 0 01-.16-1.48v-4.7h-1A19.88 19.88 0 015 28.46a6.32 6.32 0 01-5-6.25V6.42A6.5 6.5 0 014.77.26L5.6 0z"/><path class="cls-1" d="M37.44 28.64V16.85a3 3 0 01.67-2 2.81 2.81 0 015 1.63v5.37c.2-.33.28-.48.37-.63a2.85 2.85 0 013.18-1.31 2.9 2.9 0 012.15 2.69v2.21c.15-.26.22-.4.3-.53a2.85 2.85 0 013-1.46 2.78 2.78 0 012.34 2.35c.09.76 0 1.54.17 2.34l.3-.47a2.85 2.85 0 013.16-1.21 2.78 2.78 0 012.1 2.7v7.18a12.43 12.43 0 01-1.7 6.18c-.48.88-.89 1.79-1.28 2.71-.15.34-.28.5-.68.5H41.21c-.39 0-.53-.16-.68-.5-.43-1-.89-1.94-1.39-2.88a13.75 13.75 0 01-1.54-4.49 1.74 1.74 0 00-.36-.78 21.87 21.87 0 00-6.05-4.94 1.43 1.43 0 01-.45-2.51 4.06 4.06 0 014.09-1c.86.1 1.7.39 2.61.64zM58 54.51v6.58c0 .73-.28.91-1.42.91h-16c-1.09 0-1.38-.18-1.39-.89V47.94c0-.72.29-.91 1.37-.91h16.19c1 0 1.24.14 1.24.85v6.63zM13.65 15.82a3.89 3.89 0 01-2.81 1.1 3.63 3.63 0 01-3.92-3.81 3.73 3.73 0 013.92-3.9 3.81 3.81 0 012.71 1.13l-.93.9a2.55 2.55 0 00-1.78-.7 2.43 2.43 0 00-2.55 2.57 2.37 2.37 0 002.55 2.5 2.72 2.72 0 001.86-.75zm8.05-2.72a3.63 3.63 0 01-3.79 3.82 3.6 3.6 0 01-3.8-3.81 3.69 3.69 0 013.8-3.9 3.68 3.68 0 013.79 3.89zm-6.22 0a2.43 2.43 0 104.85 0 2.43 2.43 0 10-4.85 0zm13.69-1.7l-2.41 3.21h-.27l-2.36-3.22v5.37h-1.39V9.37h1.6l2.32 3.18L29 9.37h1.59v7.39h-1.42zm6.19 3.18h-2.09v2.17h-1.39V9.36h3.48a2.62 2.62 0 110 5.22zm-2.09-1.28h2.09a1.31 1.31 0 100-2.62h-2.09z"/><path class="cls-1" d="M51.4 15.36h-3.86l-.64 1.39h-1.51l3.32-7.39h1.52l3.32 7.39H52zm-1.93-4.45l-1.37 3.15h2.74zm11.26 5.84h-1.66l-2.15-2.47h-1.34v2.47h-1.4v-7.4h3.52a2.45 2.45 0 012.66 2.45 2.19 2.19 0 01-1.87 2.32l2.24 2.53zm-5.15-6.09V13h2.12a1.19 1.19 0 100-2.37z"/><path class="cls-1" d="M40.42 12.5v-1.84h2.13a1.19 1.19 0 110 2.37h-.48a2.87 2.87 0 011.42 2.35v.89l.42.48h1.66v-.09l-2.24-2.53a2.19 2.19 0 001.87-2.32 2.45 2.45 0 00-2.66-2.45H39v3.39a3 3 0 011.42-.25z"/></g></g></svg>