<svg xmlns="http://www.w3.org/2000/svg" viewBox="0 0 65.72 71.84"><defs><style>.cls-1{fill:#fff}</style></defs><g id="Layer_2" data-name="Layer 2"><g id="Inicio_2" data-name="Inicio 2"><path class="cls-1" d="M44.37 67.26a14.67 14.67 0 01-.47 3c-.23.61-1 1-1.46 1.53-.41-.56-1.16-1.11-1.17-1.68 0-2 .2-4 .35-6.13 3 .16 5.67.42 8.36.43 4.46 0 5.74-1.13 6.23-5.48.39-3.59.63-7.19 1-10.9l6.18-2.27c-1.3-2.18-2.27-4-3.44-5.72a11.68 11.68 0 01-2.07-9.71c2-8-4.83-18.92-13.18-21.58a3 3 0 01-1.12-.39c-.73-.63-1.37-1.36-2-2 1-.2 2.32-.9 3-.52 3.17 1.63 6.64 3.1 9.16 5.5 5.19 5 8.28 11.07 7 18.62a11.43 11.43 0 002.13 9.36 26.25 26.25 0 012 3.33c1.63 3 1 5.41-2.22 6.48-2.38.79-3 2.15-3.1 4.34-.12 2.5-.42 5-.76 7.48a6.56 6.56 0 01-6.26 6.17 42 42 0 01-4.2.13c-1.33.02-2.59.01-3.96.01z"/><path class="cls-1" d="M37.1 21.19A22.72 22.72 0 0133.53 24c-1.58.78-3.56 1.93-5 1.54s-2.89-2.33-3.41-3.9c-.68-2 .52-3.84 2.57-4.87a6.83 6.83 0 002.61-9.32A4.86 4.86 0 0132.13.5a5 5 0 016.48 2.05 4.93 4.93 0 01-2.55 6.74c-3.3 1.46-4.57 6.58-2.28 9.2a4 4 0 005.82-.18 8.13 8.13 0 014.4-2.47c2.26-.23 4 1.27 4.44 3.65a4.46 4.46 0 01-2.48 5.26c-2.15 1.1-4 .61-5.75-1-.84-.75-1.77-1.47-3.11-2.56zm-13.98-2.95c-1.1 1.86-1.61 3.2-2.53 4.16a7 7 0 00.28 9.54 4.8 4.8 0 11-6.42 7.13c-2-2-1.86-5.11.44-7.16s2.56-7.35.25-9C12.43 21 9.78 21.71 8.4 24.8c-1 2.21-2.85 3.56-5 2.66a6.47 6.47 0 01-3.3-4c-.49-2.13 1.06-3.82 3.28-4.3a5 5 0 012.88.39c3.23 1.46 5.28.7 6.84-2.68 1.14-2.46 3.29-3.59 5.65-2.64 1.66.68 2.85 2.55 4.37 4.01zm11.06 10.53c2.77 0 4.73 2 4.85 5a5 5 0 005.64 4.73 4.57 4.57 0 015.59 4 4.64 4.64 0 01-4.14 5 4.38 4.38 0 01-4.87-4.79c.26-3.13-2.15-4.34-4-4.78a3.66 3.66 0 00-4.69 3.3 5.33 5.33 0 00.57 2.66c1.53 2.93.8 5.89-1.89 7.16a4.85 4.85 0 01-6.51-2.54c-1.1-2.77.32-5.47 3.45-6.55a3.75 3.75 0 002.15-5.54c-1.95-3.71.01-7.63 3.85-7.65zM15.57 64.14c-.21 2-.29 4-.68 6-.12.65-1 1.16-1.55 1.73-.37-.61-1.18-1.33-1.06-1.83 1.85-7.78-1.44-14-5-20.61-2.36-4.34-2.42-10-3.31-15.06-.13-.72.89-1.64 1.38-2.47.44.77 1.25 1.54 1.25 2.32a34.89 34.89 0 006.32 19.72c1.89 2.81 2.34 6.61 3.44 10z"/></g></g></svg>